<svg version="1.1" id="Layer_1" xmlns="http://www.w3.org/2000/svg" xmlns:xlink="http://www.w3.org/1999/xlink" x="0px" y="0px"
	 viewBox="0 0 512 512" style="enable-background:new 0 0 512 512;" fill="#00DFAF" xml:space="preserve">
<g>
	<path class="st0" d="M453.5,393.8c-39.3,82.1-134.8,127.6-229,111.4c-74.8-12.9-135.8-46.4-164.2-121.4
		c-22.4-59.2,2.2-120.5,56.5-147c52.9-25.8,114.1-7.3,147.9,45.7c38.1,59.7,94.5,90.9,161.7,105.8
		C434.5,390.2,442.7,391.6,453.5,393.8z"/>
	<path class="st0" d="M122.8,102c0.1-56.7,43.6-99.7,99.4-98.4c51.4,1.2,97.7,48.7,97,99.5c-0.7,52.4-46.5,96.7-99.5,96.3
		C165.1,199.1,122.6,156.4,122.8,102z"/>
	<path class="st0" d="M398,346.9c-37.7,0.6-67.5-26.7-67.8-62.2c-0.2-33.9,29-63.8,62.8-64.3c38.2-0.5,66.4,25.9,66.9,62.6
		C460.5,318.6,433.6,346.3,398,346.9z"/>
</g>
</svg>
